<?xml version="1.0"?>
<svg width="512" height="512" viewBox="0 0 512 512" xmlns="http://www.w3.org/2000/svg">
  <defs>
    <clipPath id="circleClip"><circle cx="256" cy="256" r="256"></circle></clipPath>
    <g id="sil" fill="#A82A1C" transform="translate(256 256) scale(1.22) translate(-256 -256)">
      <path d="M186 120 C 190 212 214 256 256 256 C 298 256 322 212 326 120 A 70 13 0 0 0 186 120 Z"></path>
      <rect x="249" y="252" width="14" height="120" rx="4"></rect>
      <ellipse cx="256" cy="382" rx="74" ry="16"></ellipse>
    </g>
  </defs>
  <g clip-path="url(#circleClip)">
    <circle cx="256" cy="256" r="256" fill="#D63B2A"></circle>
    <g><use href="#sil" x="1" y="1"></use><use href="#sil" x="2" y="2"></use><use href="#sil" x="3" y="3"></use><use href="#sil" x="4" y="4"></use><use href="#sil" x="5" y="5"></use><use href="#sil" x="6" y="6"></use><use href="#sil" x="7" y="7"></use><use href="#sil" x="8" y="8"></use><use href="#sil" x="9" y="9"></use><use href="#sil" x="10" y="10"></use><use href="#sil" x="11" y="11"></use><use href="#sil" x="12" y="12"></use><use href="#sil" x="13" y="13"></use><use href="#sil" x="14" y="14"></use><use href="#sil" x="15" y="15"></use><use href="#sil" x="16" y="16"></use><use href="#sil" x="17" y="17"></use><use href="#sil" x="18" y="18"></use><use href="#sil" x="19" y="19"></use><use href="#sil" x="20" y="20"></use><use href="#sil" x="21" y="21"></use><use href="#sil" x="22" y="22"></use><use href="#sil" x="23" y="23"></use><use href="#sil" x="24" y="24"></use><use href="#sil" x="25" y="25"></use><use href="#sil" x="26" y="26"></use><use href="#sil" x="27" y="27"></use><use href="#sil" x="28" y="28"></use><use href="#sil" x="29" y="29"></use><use href="#sil" x="30" y="30"></use><use href="#sil" x="31" y="31"></use><use href="#sil" x="32" y="32"></use><use href="#sil" x="33" y="33"></use><use href="#sil" x="34" y="34"></use><use href="#sil" x="35" y="35"></use><use href="#sil" x="36" y="36"></use><use href="#sil" x="37" y="37"></use><use href="#sil" x="38" y="38"></use><use href="#sil" x="39" y="39"></use><use href="#sil" x="40" y="40"></use><use href="#sil" x="41" y="41"></use><use href="#sil" x="42" y="42"></use><use href="#sil" x="43" y="43"></use><use href="#sil" x="44" y="44"></use><use href="#sil" x="45" y="45"></use><use href="#sil" x="46" y="46"></use><use href="#sil" x="47" y="47"></use><use href="#sil" x="48" y="48"></use><use href="#sil" x="49" y="49"></use><use href="#sil" x="50" y="50"></use><use href="#sil" x="51" y="51"></use><use href="#sil" x="52" y="52"></use><use href="#sil" x="53" y="53"></use><use href="#sil" x="54" y="54"></use><use href="#sil" x="55" y="55"></use><use href="#sil" x="56" y="56"></use><use href="#sil" x="57" y="57"></use><use href="#sil" x="58" y="58"></use><use href="#sil" x="59" y="59"></use><use href="#sil" x="60" y="60"></use><use href="#sil" x="61" y="61"></use><use href="#sil" x="62" y="62"></use><use href="#sil" x="63" y="63"></use><use href="#sil" x="64" y="64"></use><use href="#sil" x="65" y="65"></use><use href="#sil" x="66" y="66"></use><use href="#sil" x="67" y="67"></use><use href="#sil" x="68" y="68"></use><use href="#sil" x="69" y="69"></use><use href="#sil" x="70" y="70"></use><use href="#sil" x="71" y="71"></use><use href="#sil" x="72" y="72"></use><use href="#sil" x="73" y="73"></use><use href="#sil" x="74" y="74"></use><use href="#sil" x="75" y="75"></use><use href="#sil" x="76" y="76"></use><use href="#sil" x="77" y="77"></use><use href="#sil" x="78" y="78"></use><use href="#sil" x="79" y="79"></use><use href="#sil" x="80" y="80"></use><use href="#sil" x="81" y="81"></use><use href="#sil" x="82" y="82"></use><use href="#sil" x="83" y="83"></use><use href="#sil" x="84" y="84"></use><use href="#sil" x="85" y="85"></use><use href="#sil" x="86" y="86"></use><use href="#sil" x="87" y="87"></use><use href="#sil" x="88" y="88"></use><use href="#sil" x="89" y="89"></use><use href="#sil" x="90" y="90"></use><use href="#sil" x="91" y="91"></use><use href="#sil" x="92" y="92"></use><use href="#sil" x="93" y="93"></use><use href="#sil" x="94" y="94"></use><use href="#sil" x="95" y="95"></use><use href="#sil" x="96" y="96"></use><use href="#sil" x="97" y="97"></use><use href="#sil" x="98" y="98"></use><use href="#sil" x="99" y="99"></use><use href="#sil" x="100" y="100"></use><use href="#sil" x="101" y="101"></use><use href="#sil" x="102" y="102"></use><use href="#sil" x="103" y="103"></use><use href="#sil" x="104" y="104"></use><use href="#sil" x="105" y="105"></use><use href="#sil" x="106" y="106"></use><use href="#sil" x="107" y="107"></use><use href="#sil" x="108" y="108"></use><use href="#sil" x="109" y="109"></use><use href="#sil" x="110" y="110"></use><use href="#sil" x="111" y="111"></use><use href="#sil" x="112" y="112"></use><use href="#sil" x="113" y="113"></use><use href="#sil" x="114" y="114"></use><use href="#sil" x="115" y="115"></use><use href="#sil" x="116" y="116"></use><use href="#sil" x="117" y="117"></use><use href="#sil" x="118" y="118"></use><use href="#sil" x="119" y="119"></use><use href="#sil" x="120" y="120"></use><use href="#sil" x="121" y="121"></use><use href="#sil" x="122" y="122"></use><use href="#sil" x="123" y="123"></use><use href="#sil" x="124" y="124"></use><use href="#sil" x="125" y="125"></use><use href="#sil" x="126" y="126"></use><use href="#sil" x="127" y="127"></use><use href="#sil" x="128" y="128"></use><use href="#sil" x="129" y="129"></use><use href="#sil" x="130" y="130"></use><use href="#sil" x="131" y="131"></use><use href="#sil" x="132" y="132"></use><use href="#sil" x="133" y="133"></use><use href="#sil" x="134" y="134"></use><use href="#sil" x="135" y="135"></use><use href="#sil" x="136" y="136"></use><use href="#sil" x="137" y="137"></use><use href="#sil" x="138" y="138"></use><use href="#sil" x="139" y="139"></use><use href="#sil" x="140" y="140"></use><use href="#sil" x="141" y="141"></use><use href="#sil" x="142" y="142"></use><use href="#sil" x="143" y="143"></use><use href="#sil" x="144" y="144"></use><use href="#sil" x="145" y="145"></use><use href="#sil" x="146" y="146"></use><use href="#sil" x="147" y="147"></use><use href="#sil" x="148" y="148"></use><use href="#sil" x="149" y="149"></use><use href="#sil" x="150" y="150"></use><use href="#sil" x="151" y="151"></use><use href="#sil" x="152" y="152"></use><use href="#sil" x="153" y="153"></use><use href="#sil" x="154" y="154"></use><use href="#sil" x="155" y="155"></use><use href="#sil" x="156" y="156"></use><use href="#sil" x="157" y="157"></use><use href="#sil" x="158" y="158"></use><use href="#sil" x="159" y="159"></use><use href="#sil" x="160" y="160"></use><use href="#sil" x="161" y="161"></use><use href="#sil" x="162" y="162"></use><use href="#sil" x="163" y="163"></use><use href="#sil" x="164" y="164"></use><use href="#sil" x="165" y="165"></use><use href="#sil" x="166" y="166"></use><use href="#sil" x="167" y="167"></use><use href="#sil" x="168" y="168"></use><use href="#sil" x="169" y="169"></use><use href="#sil" x="170" y="170"></use><use href="#sil" x="171" y="171"></use><use href="#sil" x="172" y="172"></use><use href="#sil" x="173" y="173"></use><use href="#sil" x="174" y="174"></use><use href="#sil" x="175" y="175"></use><use href="#sil" x="176" y="176"></use><use href="#sil" x="177" y="177"></use><use href="#sil" x="178" y="178"></use><use href="#sil" x="179" y="179"></use><use href="#sil" x="180" y="180"></use><use href="#sil" x="181" y="181"></use><use href="#sil" x="182" y="182"></use><use href="#sil" x="183" y="183"></use><use href="#sil" x="184" y="184"></use><use href="#sil" x="185" y="185"></use><use href="#sil" x="186" y="186"></use><use href="#sil" x="187" y="187"></use><use href="#sil" x="188" y="188"></use><use href="#sil" x="189" y="189"></use><use href="#sil" x="190" y="190"></use><use href="#sil" x="191" y="191"></use><use href="#sil" x="192" y="192"></use><use href="#sil" x="193" y="193"></use><use href="#sil" x="194" y="194"></use><use href="#sil" x="195" y="195"></use><use href="#sil" x="196" y="196"></use><use href="#sil" x="197" y="197"></use><use href="#sil" x="198" y="198"></use><use href="#sil" x="199" y="199"></use><use href="#sil" x="200" y="200"></use><use href="#sil" x="201" y="201"></use><use href="#sil" x="202" y="202"></use><use href="#sil" x="203" y="203"></use><use href="#sil" x="204" y="204"></use><use href="#sil" x="205" y="205"></use><use href="#sil" x="206" y="206"></use><use href="#sil" x="207" y="207"></use><use href="#sil" x="208" y="208"></use><use href="#sil" x="209" y="209"></use><use href="#sil" x="210" y="210"></use><use href="#sil" x="211" y="211"></use><use href="#sil" x="212" y="212"></use><use href="#sil" x="213" y="213"></use><use href="#sil" x="214" y="214"></use><use href="#sil" x="215" y="215"></use><use href="#sil" x="216" y="216"></use><use href="#sil" x="217" y="217"></use><use href="#sil" x="218" y="218"></use><use href="#sil" x="219" y="219"></use><use href="#sil" x="220" y="220"></use><use href="#sil" x="221" y="221"></use><use href="#sil" x="222" y="222"></use><use href="#sil" x="223" y="223"></use><use href="#sil" x="224" y="224"></use><use href="#sil" x="225" y="225"></use><use href="#sil" x="226" y="226"></use><use href="#sil" x="227" y="227"></use><use href="#sil" x="228" y="228"></use><use href="#sil" x="229" y="229"></use><use href="#sil" x="230" y="230"></use><use href="#sil" x="231" y="231"></use><use href="#sil" x="232" y="232"></use><use href="#sil" x="233" y="233"></use><use href="#sil" x="234" y="234"></use><use href="#sil" x="235" y="235"></use><use href="#sil" x="236" y="236"></use><use href="#sil" x="237" y="237"></use><use href="#sil" x="238" y="238"></use><use href="#sil" x="239" y="239"></use><use href="#sil" x="240" y="240"></use><use href="#sil" x="241" y="241"></use><use href="#sil" x="242" y="242"></use><use href="#sil" x="243" y="243"></use><use href="#sil" x="244" y="244"></use><use href="#sil" x="245" y="245"></use><use href="#sil" x="246" y="246"></use><use href="#sil" x="247" y="247"></use><use href="#sil" x="248" y="248"></use><use href="#sil" x="249" y="249"></use><use href="#sil" x="250" y="250"></use><use href="#sil" x="251" y="251"></use><use href="#sil" x="252" y="252"></use><use href="#sil" x="253" y="253"></use><use href="#sil" x="254" y="254"></use><use href="#sil" x="255" y="255"></use><use href="#sil" x="256" y="256"></use><use href="#sil" x="257" y="257"></use><use href="#sil" x="258" y="258"></use><use href="#sil" x="259" y="259"></use><use href="#sil" x="260" y="260"></use><use href="#sil" x="261" y="261"></use><use href="#sil" x="262" y="262"></use><use href="#sil" x="263" y="263"></use><use href="#sil" x="264" y="264"></use><use href="#sil" x="265" y="265"></use><use href="#sil" x="266" y="266"></use><use href="#sil" x="267" y="267"></use><use href="#sil" x="268" y="268"></use><use href="#sil" x="269" y="269"></use><use href="#sil" x="270" y="270"></use><use href="#sil" x="271" y="271"></use><use href="#sil" x="272" y="272"></use><use href="#sil" x="273" y="273"></use><use href="#sil" x="274" y="274"></use><use href="#sil" x="275" y="275"></use><use href="#sil" x="276" y="276"></use><use href="#sil" x="277" y="277"></use><use href="#sil" x="278" y="278"></use><use href="#sil" x="279" y="279"></use><use href="#sil" x="280" y="280"></use></g>
    <g transform="translate(256 256) scale(1.22) translate(-256 -256)">
      <ellipse cx="256" cy="382" rx="74" ry="16" fill="#F6F1EE"></ellipse>
      <rect x="249" y="252" width="14" height="120" rx="4" fill="#F6F1EE"></rect>
      <path d="M186 120 C 190 212 214 256 256 256 C 298 256 322 212 326 120 A 70 13 0 0 0 186 120 Z" fill="#ECE6E2"></path>
      <ellipse cx="256" cy="120" rx="70" ry="13" fill="#F6F1EE"></ellipse>
      <ellipse cx="256" cy="121" rx="60" ry="10" fill="#DBD2CD"></ellipse>
      <path d="M196 170 C 202 214 224 256 256 256 C 288 256 310 214 316 170 A 60 9 0 0 1 196 170 Z" fill="#8C1A12"></path>
      <ellipse cx="256" cy="170" rx="60" ry="9" fill="#9E2117"></ellipse>
      <path d="M206 132 C 209 188 216 226 230 242 C 221 226 217 188 216 134 Z" fill="#FFFFFF" opacity="0.4"></path>
    </g>
  </g>
</svg>