<?xml version="1.0"?>
<svg width="512" height="512" viewBox="0 0 512 512" xmlns="http://www.w3.org/2000/svg">
  <defs>
    <clipPath id="circleClip"><circle cx="256" cy="256" r="256"></circle></clipPath>
    <g id="sil" fill="#137A50" transform="translate(256 256) scale(1.18) translate(-256 -256)">
      <ellipse cx="256" cy="318" rx="164" ry="72"></ellipse>
      <ellipse cx="256" cy="250" rx="134" ry="62"></ellipse>
      <g transform="rotate(-16 256 250)"><rect x="252" y="146" width="8" height="150" rx="4"></rect></g>
    </g>
  </defs>
  <g clip-path="url(#circleClip)">
    <circle cx="256" cy="256" r="256" fill="#18A36B"></circle>
    <g><use href="#sil" x="1" y="1"></use><use href="#sil" x="2" y="2"></use><use href="#sil" x="3" y="3"></use><use href="#sil" x="4" y="4"></use><use href="#sil" x="5" y="5"></use><use href="#sil" x="6" y="6"></use><use href="#sil" x="7" y="7"></use><use href="#sil" x="8" y="8"></use><use href="#sil" x="9" y="9"></use><use href="#sil" x="10" y="10"></use><use href="#sil" x="11" y="11"></use><use href="#sil" x="12" y="12"></use><use href="#sil" x="13" y="13"></use><use href="#sil" x="14" y="14"></use><use href="#sil" x="15" y="15"></use><use href="#sil" x="16" y="16"></use><use href="#sil" x="17" y="17"></use><use href="#sil" x="18" y="18"></use><use href="#sil" x="19" y="19"></use><use href="#sil" x="20" y="20"></use><use href="#sil" x="21" y="21"></use><use href="#sil" x="22" y="22"></use><use href="#sil" x="23" y="23"></use><use href="#sil" x="24" y="24"></use><use href="#sil" x="25" y="25"></use><use href="#sil" x="26" y="26"></use><use href="#sil" x="27" y="27"></use><use href="#sil" x="28" y="28"></use><use href="#sil" x="29" y="29"></use><use href="#sil" x="30" y="30"></use><use href="#sil" x="31" y="31"></use><use href="#sil" x="32" y="32"></use><use href="#sil" x="33" y="33"></use><use href="#sil" x="34" y="34"></use><use href="#sil" x="35" y="35"></use><use href="#sil" x="36" y="36"></use><use href="#sil" x="37" y="37"></use><use href="#sil" x="38" y="38"></use><use href="#sil" x="39" y="39"></use><use href="#sil" x="40" y="40"></use><use href="#sil" x="41" y="41"></use><use href="#sil" x="42" y="42"></use><use href="#sil" x="43" y="43"></use><use href="#sil" x="44" y="44"></use><use href="#sil" x="45" y="45"></use><use href="#sil" x="46" y="46"></use><use href="#sil" x="47" y="47"></use><use href="#sil" x="48" y="48"></use><use href="#sil" x="49" y="49"></use><use href="#sil" x="50" y="50"></use><use href="#sil" x="51" y="51"></use><use href="#sil" x="52" y="52"></use><use href="#sil" x="53" y="53"></use><use href="#sil" x="54" y="54"></use><use href="#sil" x="55" y="55"></use><use href="#sil" x="56" y="56"></use><use href="#sil" x="57" y="57"></use><use href="#sil" x="58" y="58"></use><use href="#sil" x="59" y="59"></use><use href="#sil" x="60" y="60"></use><use href="#sil" x="61" y="61"></use><use href="#sil" x="62" y="62"></use><use href="#sil" x="63" y="63"></use><use href="#sil" x="64" y="64"></use><use href="#sil" x="65" y="65"></use><use href="#sil" x="66" y="66"></use><use href="#sil" x="67" y="67"></use><use href="#sil" x="68" y="68"></use><use href="#sil" x="69" y="69"></use><use href="#sil" x="70" y="70"></use><use href="#sil" x="71" y="71"></use><use href="#sil" x="72" y="72"></use><use href="#sil" x="73" y="73"></use><use href="#sil" x="74" y="74"></use><use href="#sil" x="75" y="75"></use><use href="#sil" x="76" y="76"></use><use href="#sil" x="77" y="77"></use><use href="#sil" x="78" y="78"></use><use href="#sil" x="79" y="79"></use><use href="#sil" x="80" y="80"></use><use href="#sil" x="81" y="81"></use><use href="#sil" x="82" y="82"></use><use href="#sil" x="83" y="83"></use><use href="#sil" x="84" y="84"></use><use href="#sil" x="85" y="85"></use><use href="#sil" x="86" y="86"></use><use href="#sil" x="87" y="87"></use><use href="#sil" x="88" y="88"></use><use href="#sil" x="89" y="89"></use><use href="#sil" x="90" y="90"></use><use href="#sil" x="91" y="91"></use><use href="#sil" x="92" y="92"></use><use href="#sil" x="93" y="93"></use><use href="#sil" x="94" y="94"></use><use href="#sil" x="95" y="95"></use><use href="#sil" x="96" y="96"></use><use href="#sil" x="97" y="97"></use><use href="#sil" x="98" y="98"></use><use href="#sil" x="99" y="99"></use><use href="#sil" x="100" y="100"></use><use href="#sil" x="101" y="101"></use><use href="#sil" x="102" y="102"></use><use href="#sil" x="103" y="103"></use><use href="#sil" x="104" y="104"></use><use href="#sil" x="105" y="105"></use><use href="#sil" x="106" y="106"></use><use href="#sil" x="107" y="107"></use><use href="#sil" x="108" y="108"></use><use href="#sil" x="109" y="109"></use><use href="#sil" x="110" y="110"></use><use href="#sil" x="111" y="111"></use><use href="#sil" x="112" y="112"></use><use href="#sil" x="113" y="113"></use><use href="#sil" x="114" y="114"></use><use href="#sil" x="115" y="115"></use><use href="#sil" x="116" y="116"></use><use href="#sil" x="117" y="117"></use><use href="#sil" x="118" y="118"></use><use href="#sil" x="119" y="119"></use><use href="#sil" x="120" y="120"></use><use href="#sil" x="121" y="121"></use><use href="#sil" x="122" y="122"></use><use href="#sil" x="123" y="123"></use><use href="#sil" x="124" y="124"></use><use href="#sil" x="125" y="125"></use><use href="#sil" x="126" y="126"></use><use href="#sil" x="127" y="127"></use><use href="#sil" x="128" y="128"></use><use href="#sil" x="129" y="129"></use><use href="#sil" x="130" y="130"></use><use href="#sil" x="131" y="131"></use><use href="#sil" x="132" y="132"></use><use href="#sil" x="133" y="133"></use><use href="#sil" x="134" y="134"></use><use href="#sil" x="135" y="135"></use><use href="#sil" x="136" y="136"></use><use href="#sil" x="137" y="137"></use><use href="#sil" x="138" y="138"></use><use href="#sil" x="139" y="139"></use><use href="#sil" x="140" y="140"></use><use href="#sil" x="141" y="141"></use><use href="#sil" x="142" y="142"></use><use href="#sil" x="143" y="143"></use><use href="#sil" x="144" y="144"></use><use href="#sil" x="145" y="145"></use><use href="#sil" x="146" y="146"></use><use href="#sil" x="147" y="147"></use><use href="#sil" x="148" y="148"></use><use href="#sil" x="149" y="149"></use><use href="#sil" x="150" y="150"></use><use href="#sil" x="151" y="151"></use><use href="#sil" x="152" y="152"></use><use href="#sil" x="153" y="153"></use><use href="#sil" x="154" y="154"></use><use href="#sil" x="155" y="155"></use><use href="#sil" x="156" y="156"></use><use href="#sil" x="157" y="157"></use><use href="#sil" x="158" y="158"></use><use href="#sil" x="159" y="159"></use><use href="#sil" x="160" y="160"></use><use href="#sil" x="161" y="161"></use><use href="#sil" x="162" y="162"></use><use href="#sil" x="163" y="163"></use><use href="#sil" x="164" y="164"></use><use href="#sil" x="165" y="165"></use><use href="#sil" x="166" y="166"></use><use href="#sil" x="167" y="167"></use><use href="#sil" x="168" y="168"></use><use href="#sil" x="169" y="169"></use><use href="#sil" x="170" y="170"></use><use href="#sil" x="171" y="171"></use><use href="#sil" x="172" y="172"></use><use href="#sil" x="173" y="173"></use><use href="#sil" x="174" y="174"></use><use href="#sil" x="175" y="175"></use><use href="#sil" x="176" y="176"></use><use href="#sil" x="177" y="177"></use><use href="#sil" x="178" y="178"></use><use href="#sil" x="179" y="179"></use><use href="#sil" x="180" y="180"></use><use href="#sil" x="181" y="181"></use><use href="#sil" x="182" y="182"></use><use href="#sil" x="183" y="183"></use><use href="#sil" x="184" y="184"></use><use href="#sil" x="185" y="185"></use><use href="#sil" x="186" y="186"></use><use href="#sil" x="187" y="187"></use><use href="#sil" x="188" y="188"></use><use href="#sil" x="189" y="189"></use><use href="#sil" x="190" y="190"></use><use href="#sil" x="191" y="191"></use><use href="#sil" x="192" y="192"></use><use href="#sil" x="193" y="193"></use><use href="#sil" x="194" y="194"></use><use href="#sil" x="195" y="195"></use><use href="#sil" x="196" y="196"></use><use href="#sil" x="197" y="197"></use><use href="#sil" x="198" y="198"></use><use href="#sil" x="199" y="199"></use><use href="#sil" x="200" y="200"></use><use href="#sil" x="201" y="201"></use><use href="#sil" x="202" y="202"></use><use href="#sil" x="203" y="203"></use><use href="#sil" x="204" y="204"></use><use href="#sil" x="205" y="205"></use><use href="#sil" x="206" y="206"></use><use href="#sil" x="207" y="207"></use><use href="#sil" x="208" y="208"></use><use href="#sil" x="209" y="209"></use><use href="#sil" x="210" y="210"></use><use href="#sil" x="211" y="211"></use><use href="#sil" x="212" y="212"></use><use href="#sil" x="213" y="213"></use><use href="#sil" x="214" y="214"></use><use href="#sil" x="215" y="215"></use><use href="#sil" x="216" y="216"></use><use href="#sil" x="217" y="217"></use><use href="#sil" x="218" y="218"></use><use href="#sil" x="219" y="219"></use><use href="#sil" x="220" y="220"></use><use href="#sil" x="221" y="221"></use><use href="#sil" x="222" y="222"></use><use href="#sil" x="223" y="223"></use><use href="#sil" x="224" y="224"></use><use href="#sil" x="225" y="225"></use><use href="#sil" x="226" y="226"></use><use href="#sil" x="227" y="227"></use><use href="#sil" x="228" y="228"></use><use href="#sil" x="229" y="229"></use><use href="#sil" x="230" y="230"></use><use href="#sil" x="231" y="231"></use><use href="#sil" x="232" y="232"></use><use href="#sil" x="233" y="233"></use><use href="#sil" x="234" y="234"></use><use href="#sil" x="235" y="235"></use><use href="#sil" x="236" y="236"></use><use href="#sil" x="237" y="237"></use><use href="#sil" x="238" y="238"></use><use href="#sil" x="239" y="239"></use><use href="#sil" x="240" y="240"></use><use href="#sil" x="241" y="241"></use><use href="#sil" x="242" y="242"></use><use href="#sil" x="243" y="243"></use><use href="#sil" x="244" y="244"></use><use href="#sil" x="245" y="245"></use><use href="#sil" x="246" y="246"></use><use href="#sil" x="247" y="247"></use><use href="#sil" x="248" y="248"></use><use href="#sil" x="249" y="249"></use><use href="#sil" x="250" y="250"></use><use href="#sil" x="251" y="251"></use><use href="#sil" x="252" y="252"></use><use href="#sil" x="253" y="253"></use><use href="#sil" x="254" y="254"></use><use href="#sil" x="255" y="255"></use><use href="#sil" x="256" y="256"></use><use href="#sil" x="257" y="257"></use><use href="#sil" x="258" y="258"></use><use href="#sil" x="259" y="259"></use><use href="#sil" x="260" y="260"></use><use href="#sil" x="261" y="261"></use><use href="#sil" x="262" y="262"></use><use href="#sil" x="263" y="263"></use><use href="#sil" x="264" y="264"></use><use href="#sil" x="265" y="265"></use><use href="#sil" x="266" y="266"></use><use href="#sil" x="267" y="267"></use><use href="#sil" x="268" y="268"></use><use href="#sil" x="269" y="269"></use><use href="#sil" x="270" y="270"></use><use href="#sil" x="271" y="271"></use><use href="#sil" x="272" y="272"></use><use href="#sil" x="273" y="273"></use><use href="#sil" x="274" y="274"></use><use href="#sil" x="275" y="275"></use><use href="#sil" x="276" y="276"></use><use href="#sil" x="277" y="277"></use><use href="#sil" x="278" y="278"></use><use href="#sil" x="279" y="279"></use><use href="#sil" x="280" y="280"></use></g>
    <g transform="translate(256 256) scale(1.18) translate(-256 -256)">
      <path d="M96 274 A160 38 0 0 0 416 274 C 414 332 350 372 256 372 C 162 372 98 332 96 274 Z" fill="#9A5230"></path>
      <ellipse cx="256" cy="274" rx="160" ry="38" fill="#BD6D45"></ellipse>
      <ellipse cx="256" cy="274" rx="145" ry="31" fill="#8E4A2C"></ellipse>
      <g transform="rotate(-16 256 248)">
        <rect x="252" y="142" width="8" height="150" rx="4" fill="#CBAE82"></rect>
        <rect x="257" y="142" width="3" height="150" rx="1.5" fill="#B5945F"></rect>
      </g>
      <path d="M256.0 213.4 C 251.7 222.1 238.5 243.9 227.0 246.3 C 215.5 248.7 194.8 234.5 187.2 228.0 C 179.6 221.4 175.8 215.3 181.7 207.0 C 187.6 198.7 210.7 180.6 222.6 178.4 C 234.5 176.2 247.4 188.1 253.0 193.9 C 258.6 199.7 260.4 204.7 256.0 213.4 Z" fill="#FBCB57"></path>
      <path d="M298.8 234.6 C 288.9 239.7 262.9 235.0 252.8 232.0 C 242.7 229.1 239.2 224.8 238.3 217.0 C 237.3 209.2 238.8 190.2 247.3 185.3 C 255.9 180.3 278.7 184.6 289.4 187.3 C 300.2 189.9 310.2 193.4 311.7 201.3 C 313.3 209.2 308.6 229.5 298.8 234.6 Z" fill="#F6A93E"></path>
      <path d="M283.8 233.0 C 276.8 240.1 257.7 252.1 245.9 253.9 C 234.1 255.6 218.1 251.3 213.0 243.5 C 207.8 235.8 209.2 216.2 215.1 207.3 C 221.1 198.4 236.7 189.3 248.7 189.9 C 260.8 190.5 281.7 203.8 287.6 211.0 C 293.4 218.2 290.7 225.8 283.8 233.0 Z" fill="#FCE390"></path>
      <path d="M191.5 273.6 C 184.8 280.9 178.0 284.9 167.8 281.8 C 157.7 278.8 134.6 265.2 130.6 255.4 C 126.5 245.7 135.2 228.6 143.7 223.3 C 152.2 217.9 170.6 221.0 181.4 223.5 C 192.1 226.0 206.5 229.7 208.1 238.1 C 209.8 246.4 198.2 266.3 191.5 273.6 Z" fill="#F6A93E"></path>
      <path d="M215.1 280.1 C 204.0 278.9 179.7 267.0 173.7 257.8 C 167.8 248.7 171.5 233.6 179.5 225.1 C 187.5 216.7 211.7 207.2 221.8 207.0 C 232.0 206.8 237.2 214.4 240.3 224.0 C 243.3 233.6 244.5 255.2 240.3 264.5 C 236.1 273.9 226.2 281.2 215.1 280.1 Z" fill="#FCE390"></path>
      <path d="M344.4 248.2 C 339.1 258.5 309.6 279.8 296.7 281.4 C 283.8 283.1 273.5 266.8 266.9 258.0 C 260.3 249.1 252.7 237.0 257.2 228.1 C 261.6 219.2 281.8 206.0 293.7 204.5 C 305.6 203.0 320.1 212.0 328.5 219.2 C 337.0 226.5 349.7 237.8 344.4 248.2 Z" fill="#FBCB57"></path>
      <path d="M359.4 274.4 C 349.5 278.4 326.5 283.4 317.1 278.9 C 307.6 274.3 300.5 256.5 302.8 247.2 C 305.2 237.9 320.4 226.0 331.3 223.2 C 342.2 220.5 360.7 225.4 368.2 230.7 C 375.8 235.9 377.9 247.3 376.5 254.6 C 375.0 261.9 369.3 270.4 359.4 274.4 Z" fill="#F6A93E"></path>
      <path d="M230.4 277.2 C 220.2 270.6 211.7 253.3 215.3 243.4 C 218.8 233.5 238.0 218.4 251.8 217.6 C 265.6 216.8 293.7 227.9 297.8 238.7 C 301.9 249.5 287.7 276.0 276.5 282.4 C 265.2 288.8 240.6 283.7 230.4 277.2 Z" fill="#FBCB57"></path>
      <path d="M221.4 295.4 C 214.3 305.3 188.6 317.3 175.6 313.8 C 162.7 310.4 143.9 285.4 143.6 274.7 C 143.2 264.0 161.0 253.2 173.4 249.8 C 185.8 246.4 209.9 246.7 217.9 254.3 C 225.9 261.9 228.4 285.5 221.4 295.4 Z" fill="#FCE390"></path>
      <path d="M225.8 324.1 C 210.6 321.4 184.6 303.9 183.8 291.6 C 183.1 279.3 207.1 252.9 221.3 250.1 C 235.5 247.3 259.9 265.1 268.9 274.8 C 277.9 284.4 282.4 299.9 275.3 308.1 C 268.1 316.3 241.1 326.9 225.8 324.1 Z" fill="#FBCB57"></path>
      <path d="M317.1 311.0 C 308.8 320.2 289.3 325.1 278.6 324.5 C 268.0 323.9 258.0 315.5 253.1 307.6 C 248.1 299.7 243.6 286.1 248.9 277.3 C 254.2 268.4 271.4 255.8 284.6 254.5 C 297.9 253.2 323.1 260.0 328.6 269.5 C 334.0 278.9 325.4 301.8 317.1 311.0 Z" fill="#FCE390"></path>
      <path d="M328.4 307.9 C 318.4 308.9 309.8 305.1 303.8 298.9 C 297.8 292.7 290.2 279.8 292.5 270.8 C 294.9 261.7 305.1 246.3 318.0 244.5 C 330.9 242.7 362.3 252.0 369.9 260.1 C 377.5 268.1 370.4 284.7 363.5 292.7 C 356.6 300.7 338.3 306.9 328.4 307.9 Z" fill="#F6A93E"></path>
      <path d="M224 229 C 222 220 236 215 245 220 C 252 223 259 218 263 225 C 268 233 261 240 254 243 C 247 247 237 247 231 242 C 226 238 225 234 224 229 Z" fill="#E07A2C"></path>
      <path d="M181 249 C 182 240 195 236 203 241 C 209 244 216 242 215 250 C 214 259 205 264 196 262 C 188 260 180 257 181 249 Z" fill="#D86A26"></path>
      <path d="M285 245 C 284 236 298 232 306 238 C 312 242 319 239 316 247 C 314 256 304 261 296 258 C 289 256 285 251 285 245 Z" fill="#E07A2C"></path>
      <path d="M235 260 C 235 251 248 246 257 252 C 263 256 270 253 267 262 C 264 271 253 275 245 271 C 238 268 235 265 235 260 Z" fill="#E07A2C"></path>
      <path d="M268 286 C 268 277 282 272 291 278 C 297 282 304 279 301 288 C 298 297 286 301 278 297 C 271 294 268 291 268 286 Z" fill="#D86A26"></path>
      <path d="M200 284 C 201 276 214 271 222 277 C 228 281 235 278 232 287 C 229 295 218 299 210 295 C 204 292 200 289 200 284 Z" fill="#E07A2C"></path>
      <ellipse cx="240" cy="228" rx="6" ry="3" fill="#EE9A52" opacity="0.7"></ellipse>
      <ellipse cx="252" cy="258" rx="6" ry="3" fill="#EE9A52" opacity="0.65"></ellipse>
      <path d="M96 274 A160 38 0 0 0 416 274 C 414 332 350 372 256 372 C 162 372 98 332 96 274 Z" fill="#9A5230"></path>
      <path d="M150 350 C 190 368 322 368 362 350 C 352 366 304 377 256 377 C 208 377 160 366 150 350 Z" fill="#854628"></path>
      <path d="M96 274 A160 38 0 0 0 416 274 L401 274 A145 31 0 0 1 111 274 Z" fill="#BD6D45"></path>
    </g>
  </g>
</svg>